<?xml version="1.0" encoding="UTF-8" standalone="no"?>
<svg
   xmlns:dc="http://purl.org/dc/elements/1.1/"
   xmlns:cc="http://creativecommons.org/ns#"
   xmlns:rdf="http://www.w3.org/1999/02/22-rdf-syntax-ns#"
   xmlns:svg="http://www.w3.org/2000/svg"
   xmlns="http://www.w3.org/2000/svg"
   xmlns:sodipodi="http://sodipodi.sourceforge.net/DTD/sodipodi-0.dtd"
   xmlns:inkscape="http://www.inkscape.org/namespaces/inkscape"
   id="svg"
   width="400"
   height="320"
   viewBox="0, 0, 400,320"
   version="1.1"
   sodipodi:docname="tree.svg"
   inkscape:version="0.92.4 (5da689c313, 2019-01-14)">
  <metadata
     id="metadata50">
    <rdf:RDF>
      <cc:Work
         rdf:about="">
        <dc:format>image/svg+xml</dc:format>
        <dc:type
           rdf:resource="http://purl.org/dc/dcmitype/StillImage" />
        <dc:title></dc:title>
      </cc:Work>
    </rdf:RDF>
  </metadata>
  <defs
     id="defs48" />
  <sodipodi:namedview
     pagecolor="#ffffff"
     bordercolor="#666666"
     borderopacity="1"
     objecttolerance="10"
     gridtolerance="10"
     guidetolerance="10"
     inkscape:pageopacity="0"
     inkscape:pageshadow="2"
     inkscape:window-width="2048"
     inkscape:window-height="1058"
     id="namedview46"
     showgrid="false"
     inkscape:zoom="4"
     inkscape:cx="244.04759"
     inkscape:cy="161.99496"
     inkscape:window-x="-11"
     inkscape:window-y="-11"
     inkscape:window-maximized="1"
     inkscape:current-layer="svg" />
  <g
     id="svgg">
    <path
       id="path0"
       d="M209.194 19.635 C 208.639 20.624,208.901 23.760,209.970 28.917 C 211.006 33.914,211.165 36.881,210.428 37.461 C 209.879 37.893,205.691 38.077,202.492 37.809 L 200.233 37.620 199.672 36.569 C 199.363 35.991,198.937 35.308,198.726 35.051 L 198.342 34.583 198.602 35.486 C 198.746 35.983,198.931 36.569,199.015 36.789 C 199.245 37.395,199.211 37.447,198.625 37.381 C 195.546 37.035,186.892 34.995,186.204 34.453 C 185.862 34.183,185.753 34.469,186.067 34.815 C 187.693 36.612,193.127 39.030,198.155 40.193 C 199.831 40.581,199.842 40.587,199.998 41.167 C 200.484 42.975,200.983 51.405,200.625 51.763 C 200.557 51.832,199.957 51.756,199.292 51.594 C 197.448 51.145,194.772 50.930,190.939 50.923 L 187.462 50.917 188.004 50.500 C 191.451 47.849,192.745 46.057,192.417 44.391 L 192.291 43.750 192.049 44.456 C 191.712 45.441,190.568 46.400,188.667 47.294 C 185.658 48.707,182.747 50.147,181.856 50.662 C 181.364 50.946,180.164 51.635,179.189 52.193 C 176.904 53.501,175.820 54.204,174.575 55.183 L 173.566 55.976 173.347 54.530 C 173.227 53.734,172.945 52.371,172.721 51.500 C 171.281 45.904,170.806 44.127,170.495 43.167 C 169.350 39.636,169.452 36.769,170.813 34.251 C 172.780 30.609,175.011 27.936,177.135 26.674 C 178.579 25.816,178.575 25.778,177.077 26.086 C 173.521 26.817,169.519 29.930,167.926 33.204 C 167.508 34.063,167.167 34.893,167.167 35.049 C 167.167 35.432,167.121 35.419,166.209 34.771 C 162.790 32.343,157.292 30.877,154.125 31.549 C 153.530 31.675,153.245 32.000,153.728 32.000 C 155.351 32.000,163.680 36.525,165.539 38.417 C 168.468 41.398,171.376 54.355,170.172 59.063 C 169.692 60.940,167.879 64.474,166.015 67.167 C 164.415 69.478,163.721 70.570,163.230 71.548 C 162.990 72.026,162.769 72.444,162.739 72.477 C 162.709 72.510,161.949 71.922,161.051 71.171 C 160.152 70.419,158.789 69.385,158.022 68.874 L 156.628 67.944 157.234 67.633 C 159.301 66.572,162.769 65.765,164.850 65.859 C 166.396 65.930,166.289 65.692,164.512 65.115 C 161.340 64.083,157.463 63.993,155.225 64.899 L 153.750 65.496 153.385 65.049 C 153.184 64.803,152.745 63.885,152.409 63.009 C 151.873 61.609,151.641 60.849,150.983 58.333 C 150.223 55.428,149.987 52.370,150.410 50.913 C 151.521 47.091,155.127 42.622,158.908 40.381 C 159.366 40.109,159.223 40.118,158.190 40.425 C 154.229 41.601,148.453 47.527,147.726 51.160 C 147.579 51.897,147.451 51.905,146.641 51.228 C 143.439 48.552,139.286 47.081,134.417 46.898 C 132.327 46.820,132.339 46.833,135.296 47.848 C 140.715 49.708,146.145 54.229,147.787 58.250 C 150.510 64.916,150.178 67.231,145.717 72.693 C 143.933 74.878,142.063 77.585,141.390 78.958 C 140.869 80.021,140.868 80.021,140.156 79.063 C 139.262 77.860,135.207 74.184,130.340 70.167 C 125.243 65.958,124.065 63.819,123.181 57.167 C 122.762 54.014,122.493 52.174,122.421 51.968 C 121.240 48.572,122.172 44.806,125.259 40.500 C 125.818 39.721,126.547 38.671,126.879 38.167 C 127.212 37.662,127.825 36.779,128.241 36.203 C 129.290 34.753,129.619 34.055,130.001 32.462 C 130.307 31.183,130.442 30.052,130.215 30.667 C 130.025 31.179,128.827 32.498,125.603 35.746 C 122.225 39.149,121.181 40.462,120.199 42.549 C 119.906 43.172,119.667 43.711,119.667 43.747 C 119.667 44.737,119.384 44.617,117.492 42.818 C 116.310 41.695,115.118 40.743,114.267 40.242 C 111.203 38.439,109.276 37.077,107.708 35.606 C 106.601 34.567,106.606 34.839,107.731 36.875 C 109.109 39.368,110.980 41.502,114.056 44.088 C 117.329 46.838,118.892 49.778,119.912 55.103 C 120.812 59.798,121.339 62.292,121.786 63.962 C 122.131 65.254,122.200 65.744,122.065 65.958 C 121.772 66.422,118.472 67.619,115.250 68.430 C 114.700 68.569,113.800 68.803,113.250 68.950 C 112.700 69.097,111.979 69.269,111.647 69.332 L 111.045 69.447 110.936 67.099 C 110.637 60.619,110.625 58.263,110.883 56.583 C 111.646 51.620,109.302 43.987,106.252 41.500 C 106.030 41.319,106.066 41.441,106.379 41.938 C 107.822 44.230,108.758 49.012,108.235 51.417 C 108.075 52.150,107.948 53.331,107.951 54.042 C 107.955 54.752,107.947 55.333,107.932 55.333 C 107.917 55.333,107.460 55.177,106.917 54.986 C 100.239 52.639,92.157 52.276,89.262 54.193 C 88.341 54.803,88.351 54.869,89.331 54.649 C 90.210 54.451,92.699 54.567,94.668 54.898 C 95.447 55.028,96.458 55.184,96.917 55.243 C 98.236 55.414,105.658 57.320,106.079 57.596 C 107.419 58.474,108.124 61.226,108.271 66.149 L 108.384 69.947 107.317 70.159 C 105.900 70.440,102.439 70.642,101.371 70.505 C 100.388 70.379,100.390 70.473,101.385 71.056 C 102.488 71.702,104.558 72.163,106.573 72.209 L 108.333 72.250 108.339 73.167 C 108.342 73.671,108.455 74.571,108.589 75.167 C 108.724 75.762,108.880 76.451,108.935 76.697 L 109.037 77.143 107.977 76.811 C 106.927 76.481,106.321 76.430,101.495 76.256 C 96.028 76.059,92.240 75.102,92.431 73.965 C 92.635 72.747,92.885 71.724,93.093 71.250 C 93.628 70.032,93.831 69.442,93.745 69.356 C 93.536 69.147,91.855 71.512,91.180 72.965 C 90.329 74.795,89.434 73.681,86.120 66.667 C 84.292 62.798,80.898 59.190,79.070 59.170 C 78.772 59.167,78.819 59.267,79.404 59.879 C 81.819 62.411,82.425 63.513,83.737 67.756 C 84.909 71.546,85.207 72.319,85.934 73.455 C 86.292 74.015,86.463 74.437,86.370 74.530 C 86.120 74.780,83.892 75.489,81.702 76.015 C 79.525 76.538,76.590 77.647,74.017 78.919 C 72.443 79.697,70.390 80.331,69.432 80.336 C 68.479 80.341,68.401 80.601,69.263 80.895 C 70.195 81.213,72.430 81.255,74.218 80.988 C 78.952 80.281,80.695 79.904,83.667 78.946 C 84.629 78.635,86.242 78.254,87.250 78.098 C 88.258 77.943,89.289 77.784,89.540 77.746 L 89.996 77.676 89.898 79.380 C 89.819 80.759,89.887 81.654,90.258 84.083 C 90.510 85.733,90.749 87.355,90.790 87.686 L 90.864 88.289 89.854 87.804 C 86.696 86.289,77.704 86.313,72.978 87.850 C 71.239 88.416,71.407 88.500,74.271 88.500 C 76.147 88.500,77.483 88.594,78.763 88.817 C 79.764 88.992,81.221 89.224,82.000 89.334 C 83.463 89.541,85.463 89.990,86.917 90.439 C 89.638 91.279,91.152 93.223,92.172 97.187 C 92.559 98.692,92.685 98.672,90.915 97.390 C 88.306 95.500,85.030 94.192,82.758 94.132 C 81.614 94.102,81.177 94.403,82.113 94.576 C 83.825 94.894,85.623 96.221,89.417 99.967 C 91.067 101.596,92.842 103.208,93.363 103.549 C 94.254 104.132,94.339 104.249,94.830 105.550 C 95.117 106.310,95.680 107.452,96.081 108.089 C 96.482 108.725,96.788 109.268,96.761 109.295 C 96.733 109.322,95.932 109.559,94.981 109.822 C 93.139 110.331,91.551 110.879,90.815 111.260 C 89.547 111.915,84.936 112.991,83.369 112.997 C 81.484 113.004,79.767 111.440,75.834 106.136 C 72.395 101.497,71.235 99.068,70.836 95.667 C 70.311 91.194,68.915 85.174,67.725 82.250 C 67.074 80.649,67.058 80.612,66.783 80.000 L 66.521 79.417 66.522 80.417 C 66.523 81.773,66.843 84.540,67.632 90.000 C 67.997 92.521,68.389 95.596,68.504 96.833 C 68.620 98.071,68.816 99.374,68.940 99.729 C 69.260 100.641,69.247 100.666,68.458 100.670 C 68.069 100.671,67.075 100.790,66.250 100.933 C 65.425 101.076,64.150 101.255,63.417 101.331 C 62.683 101.407,61.596 101.547,61.000 101.642 C 58.506 102.037,55.555 102.249,52.537 102.249 L 49.324 102.250 49.870 102.707 C 51.784 104.307,59.132 104.656,66.196 103.482 C 70.871 102.705,70.673 102.623,72.837 106.250 C 76.090 111.703,77.798 114.039,79.137 114.867 L 79.726 115.231 78.738 116.115 C 77.562 117.168,77.436 117.187,77.019 116.375 C 75.024 112.489,70.236 108.208,67.547 107.906 C 66.761 107.817,66.757 107.819,67.250 108.050 C 68.061 108.429,69.651 110.270,71.610 113.101 C 74.333 117.034,75.167 118.299,75.167 118.495 C 75.167 118.961,69.879 121.274,67.354 121.912 L 65.625 122.350 64.966 121.893 C 64.286 121.422,62.825 119.851,60.661 117.262 C 57.285 113.224,53.631 110.752,50.761 110.565 L 49.583 110.489 50.372 110.824 C 52.501 111.728,55.045 113.960,58.083 117.588 C 58.542 118.135,58.956 118.621,59.003 118.667 C 59.051 118.712,59.600 119.367,60.223 120.122 C 60.847 120.877,61.921 122.013,62.609 122.648 C 63.647 123.604,63.808 123.819,63.551 123.901 C 62.713 124.166,59.566 127.764,56.417 132.054 L 55.250 133.643 54.592 132.863 C 53.029 131.009,49.744 127.838,48.700 127.174 C 47.910 126.673,47.684 126.580,47.929 126.858 C 48.999 128.074,53.561 135.433,53.403 135.689 C 53.283 135.883,51.529 137.184,50.535 137.816 C 50.051 138.124,49.694 138.416,49.742 138.465 C 50.074 138.797,53.043 138.171,53.947 137.579 C 54.153 137.444,54.367 137.333,54.422 137.333 C 54.585 137.333,56.730 141.903,57.746 144.417 C 58.711 146.802,60.405 150.038,61.535 151.653 C 62.302 152.748,62.304 152.779,61.625 152.918 C 60.464 153.156,55.464 154.926,53.417 155.823 C 50.286 157.195,45.382 158.316,42.142 158.401 C 40.847 158.435,42.841 159.391,44.763 159.658 C 48.667 160.201,52.134 159.563,58.250 157.175 C 62.567 155.489,62.756 155.450,63.847 156.007 C 65.247 156.721,66.614 158.307,68.965 161.942 C 70.411 164.179,70.399 163.860,69.104 165.631 C 66.980 168.536,66.246 170.056,65.929 172.208 C 65.754 173.399,65.965 173.455,66.608 172.388 C 67.367 171.127,71.221 166.553,71.682 166.365 C 71.751 166.337,72.010 166.675,72.258 167.115 C 72.505 167.556,73.049 168.479,73.466 169.167 C 74.434 170.760,75.000 171.837,75.000 172.084 C 75.000 172.664,70.170 175.071,67.453 175.844 C 56.803 178.875,57.095 178.883,50.953 175.363 C 48.185 173.777,46.927 172.933,45.118 171.447 C 44.091 170.603,44.000 170.732,44.677 172.079 C 46.232 175.173,49.416 178.222,52.883 179.938 L 54.127 180.553 53.556 182.235 C 52.398 185.646,51.833 188.247,51.833 190.172 C 51.833 191.963,51.293 194.265,50.573 195.542 C 50.050 196.469,51.296 195.885,52.339 194.714 C 53.625 193.269,54.854 190.171,55.905 185.723 C 56.842 181.753,57.045 181.523,60.417 180.611 C 61.242 180.388,62.667 179.999,63.583 179.747 C 64.500 179.494,65.913 179.107,66.723 178.886 C 68.590 178.376,72.946 176.850,74.232 176.256 C 77.550 174.722,79.985 174.758,86.431 176.432 C 88.348 176.930,91.042 177.601,92.417 177.924 C 98.975 179.463,100.040 179.731,101.750 180.270 C 102.778 180.594,104.902 181.501,106.583 182.334 C 115.392 186.698,122.920 189.527,129.667 191.007 C 132.059 191.532,132.072 191.546,130.646 192.086 C 129.970 192.342,128.704 192.869,127.833 193.258 C 126.962 193.646,125.763 194.167,125.167 194.416 C 117.700 197.530,113.271 200.066,110.000 203.099 C 106.037 206.774,106.193 206.656,103.750 207.839 C 99.590 209.855,96.652 209.949,90.917 208.249 C 82.848 205.858,79.055 202.790,77.835 197.667 C 75.657 188.521,71.880 182.167,68.621 182.167 L 67.641 182.167 68.362 182.717 C 70.693 184.495,72.732 188.461,73.748 193.196 C 74.353 196.015,75.040 198.087,76.013 200.026 L 76.836 201.667 75.688 201.667 C 75.013 201.667,73.309 201.920,71.561 202.281 C 66.263 203.374,64.344 203.094,60.500 200.664 C 55.420 197.453,51.447 196.373,50.208 197.867 C 50.027 198.085,50.137 198.131,51.050 198.217 C 52.268 198.330,53.571 198.965,55.878 200.568 C 60.901 204.058,62.328 204.843,64.558 205.342 C 65.076 205.458,65.500 205.581,65.500 205.615 C 65.500 205.650,65.325 206.032,65.111 206.464 C 64.744 207.205,63.787 210.461,63.333 212.512 C 62.802 214.914,63.469 218.659,64.564 219.426 C 65.039 219.759,65.211 219.727,65.006 219.344 C 64.348 218.116,65.459 213.455,67.693 208.073 C 68.675 205.706,69.240 205.197,71.482 204.661 C 75.039 203.812,76.519 204.053,78.756 205.847 C 82.707 209.014,90.645 211.629,98.208 212.255 C 99.763 212.384,99.756 212.205,98.276 213.963 C 96.009 216.654,94.083 219.366,90.962 224.263 C 89.737 226.186,87.818 230.283,87.416 231.838 C 87.116 232.992,87.205 233.539,87.940 235.083 L 88.496 236.250 88.498 235.405 C 88.503 233.134,91.215 228.017,95.448 222.294 C 96.439 220.954,98.223 218.521,99.412 216.887 C 101.558 213.939,104.239 211.016,106.750 208.885 C 107.300 208.419,108.313 207.556,109.000 206.968 C 111.041 205.223,114.944 202.333,115.259 202.333 C 115.307 202.333,115.550 202.192,115.798 202.019 C 116.385 201.610,120.272 199.333,120.384 199.333 C 120.431 199.333,121.170 199.007,122.026 198.608 C 122.883 198.210,123.996 197.749,124.500 197.585 C 125.004 197.422,125.963 197.073,126.630 196.810 C 127.298 196.548,128.123 196.267,128.463 196.187 C 128.804 196.106,129.983 195.764,131.083 195.427 C 134.572 194.356,139.322 193.384,143.750 192.836 C 144.392 192.756,145.367 192.611,145.917 192.513 C 147.846 192.171,154.347 191.799,156.417 191.913 C 164.741 192.373,169.084 194.241,178.512 201.416 C 184.485 205.962,189.000 210.304,189.000 211.501 C 189.000 211.587,189.233 212.166,189.517 212.787 C 189.801 213.408,190.297 214.591,190.618 215.416 C 190.940 216.241,191.301 217.142,191.422 217.417 C 191.655 217.946,192.685 220.740,193.112 222.000 C 193.251 222.412,193.519 223.088,193.706 223.500 C 193.893 223.912,194.494 225.525,195.041 227.083 C 195.587 228.642,196.369 230.854,196.777 232.000 C 198.424 236.618,198.869 245.870,198.321 264.083 C 198.229 267.108,198.084 272.133,197.998 275.250 C 197.912 278.367,197.764 281.967,197.670 283.250 C 197.576 284.533,197.428 286.896,197.340 288.500 C 196.901 296.582,195.621 304.925,193.762 311.833 C 193.193 313.949,191.901 317.301,190.985 319.042 L 190.480 320.000 203.001 320.000 L 215.522 320.000 215.404 319.625 C 215.338 319.419,214.891 318.346,214.410 317.242 C 213.928 316.138,213.370 314.675,213.169 313.992 C 212.968 313.309,212.657 312.300,212.478 311.750 C 212.114 310.636,211.346 307.783,210.727 305.250 C 210.503 304.333,210.211 303.170,210.079 302.666 C 209.947 302.161,209.581 300.249,209.266 298.416 C 208.951 296.583,208.435 293.696,208.119 292.000 C 207.804 290.304,207.460 288.182,207.356 287.284 C 207.251 286.387,206.984 284.737,206.761 283.618 C 205.936 279.465,205.269 269.760,205.257 261.750 C 205.219 235.612,205.221 235.468,205.737 233.484 C 206.536 230.412,207.663 227.130,208.708 224.833 C 208.895 224.421,209.253 223.633,209.503 223.083 C 209.753 222.533,210.147 221.671,210.378 221.167 C 210.826 220.188,211.908 217.509,212.463 216.000 C 212.649 215.496,212.926 214.746,213.079 214.333 C 213.232 213.921,213.562 213.208,213.813 212.750 C 214.064 212.292,214.526 211.317,214.838 210.583 C 215.151 209.850,215.634 208.838,215.912 208.333 C 216.190 207.829,216.528 207.201,216.665 206.937 C 217.091 206.111,218.109 205.075,220.891 202.630 C 222.372 201.330,224.296 199.622,225.167 198.836 C 227.465 196.761,228.795 195.639,229.832 194.901 C 230.738 194.257,232.018 193.295,233.930 191.824 C 234.473 191.407,235.195 190.904,235.536 190.708 C 235.877 190.512,237.152 189.612,238.370 188.709 C 241.471 186.409,241.525 186.374,243.541 185.304 C 245.505 184.263,244.909 184.406,252.083 183.247 C 261.062 181.796,268.986 181.863,275.167 183.442 C 277.226 183.968,277.884 184.196,279.333 184.885 C 280.824 185.594,282.383 186.521,283.792 187.535 C 284.520 188.058,286.082 189.041,287.266 189.720 C 289.638 191.080,290.569 191.737,294.600 194.889 C 297.639 197.265,298.172 197.754,298.803 198.739 C 299.041 199.112,300.046 200.550,301.035 201.936 C 302.024 203.321,302.833 204.511,302.833 204.579 C 302.833 204.647,303.685 205.989,304.727 207.560 C 308.295 212.942,310.301 217.427,311.663 223.067 C 312.555 226.759,312.719 233.159,311.978 235.314 C 311.457 236.828,311.791 236.543,312.752 234.652 C 315.367 229.508,314.852 218.910,311.716 213.331 C 311.107 212.247,310.376 212.457,317.167 211.760 C 319.904 211.479,324.153 211.182,328.083 210.996 C 329.550 210.926,331.575 210.817,332.583 210.753 C 335.072 210.595,336.873 210.909,339.620 211.979 C 340.791 212.436,342.284 212.992,342.937 213.214 C 344.942 213.897,345.599 214.593,347.294 217.833 C 348.269 219.697,348.842 221.475,349.068 223.333 C 349.119 223.746,349.274 224.827,349.413 225.735 C 349.553 226.644,349.669 227.619,349.672 227.902 C 349.680 228.702,350.072 228.066,350.335 226.824 C 350.760 224.822,350.024 218.767,348.963 215.537 C 348.683 214.686,348.484 213.965,348.519 213.935 C 349.149 213.397,355.265 210.354,357.496 209.469 C 359.391 208.716,360.330 208.262,361.267 207.644 C 361.735 207.336,362.260 206.993,362.434 206.883 C 362.688 206.722,362.356 206.693,360.750 206.739 C 357.937 206.820,354.649 207.901,349.900 210.308 C 346.188 212.189,346.281 212.173,344.917 211.153 C 343.153 209.835,338.812 207.383,337.583 207.010 C 337.217 206.899,336.808 206.773,336.675 206.730 C 336.510 206.676,336.804 206.296,337.599 205.534 C 341.048 202.229,345.457 195.209,346.727 191.000 C 347.489 188.474,347.451 188.447,346.054 190.517 C 344.134 193.363,343.363 194.295,340.416 197.333 C 338.948 198.846,337.148 200.833,336.416 201.749 C 331.229 208.233,330.344 208.541,315.083 209.183 C 312.608 209.287,310.301 209.430,309.957 209.502 C 309.357 209.626,309.301 209.599,308.661 208.858 C 307.379 207.373,304.909 203.895,303.848 202.079 C 303.260 201.073,302.340 199.544,301.805 198.681 C 301.269 197.818,300.754 196.823,300.659 196.470 C 300.564 196.117,300.325 195.556,300.129 195.224 L 299.772 194.619 300.276 194.185 C 301.428 193.190,305.150 190.606,308.464 188.500 C 309.402 187.904,311.192 186.742,312.441 185.917 C 318.270 182.069,320.751 180.803,324.833 179.594 C 329.787 178.127,336.792 177.972,340.588 179.246 C 345.100 180.761,350.700 184.932,352.196 187.892 C 352.916 189.317,352.914 188.974,352.191 186.905 C 350.123 180.990,345.192 175.492,340.625 174.010 C 339.829 173.752,339.729 173.987,341.722 171.446 C 343.306 169.426,344.833 167.297,344.833 167.106 C 344.833 167.063,345.182 166.440,345.607 165.722 C 346.033 165.004,346.483 164.175,346.607 163.880 C 346.849 163.307,348.144 162.354,350.600 160.943 C 353.413 159.325,355.785 160.209,361.167 164.881 C 362.038 165.638,362.620 165.996,362.402 165.642 C 360.588 162.698,357.593 159.733,355.211 158.521 L 354.505 158.162 355.794 156.486 C 359.033 152.276,359.663 151.042,360.254 147.750 C 360.503 146.368,360.575 144.555,360.399 144.098 C 360.259 143.732,360.000 143.938,360.000 144.417 C 360.000 147.963,354.237 155.810,350.500 157.351 C 349.813 157.634,348.409 158.346,347.381 158.933 C 346.353 159.520,345.471 160.000,345.422 160.000 C 345.373 160.000,345.333 159.478,345.333 158.839 C 345.333 158.201,345.226 156.869,345.094 155.881 C 344.962 154.892,344.773 153.258,344.673 152.250 C 344.574 151.242,344.415 149.967,344.321 149.417 C 343.941 147.200,344.030 146.025,344.669 144.837 C 345.325 143.617,348.798 139.914,350.750 138.352 C 352.647 136.834,356.007 134.333,356.150 134.333 C 356.222 134.333,356.417 134.183,356.583 134.000 C 357.675 132.794,351.571 135.138,348.917 136.944 C 347.446 137.945,344.472 140.484,343.665 141.429 C 343.279 141.880,342.906 142.312,342.835 142.388 C 342.765 142.464,342.230 142.098,341.646 141.576 C 341.061 141.054,340.002 140.167,339.292 139.605 C 337.772 138.402,337.769 138.389,338.792 137.542 C 340.913 135.786,346.079 133.732,350.417 132.921 C 351.700 132.681,353.350 132.338,354.083 132.159 C 354.817 131.981,355.923 131.815,356.541 131.792 C 357.814 131.744,357.800 131.753,357.292 131.309 C 354.108 128.522,346.244 129.083,339.167 132.601 C 337.929 133.216,336.885 133.711,336.846 133.702 C 336.680 133.661,336.123 131.551,335.582 128.917 C 335.262 127.358,334.955 125.918,334.900 125.716 C 334.792 125.326,334.736 125.355,336.250 125.016 C 336.884 124.874,336.863 124.866,335.811 124.850 C 334.807 124.835,334.698 124.799,334.621 124.458 C 334.575 124.252,334.306 123.191,334.024 122.101 C 333.735 120.985,333.430 119.229,333.327 118.082 L 333.143 116.046 334.000 113.900 C 335.617 109.855,338.265 104.690,338.791 104.558 C 342.402 103.652,347.964 105.213,350.826 107.937 C 352.504 109.534,352.599 109.519,351.732 107.798 C 350.585 105.521,348.309 103.750,344.083 101.846 C 338.706 99.424,339.133 98.126,345.417 97.794 C 347.345 97.692,344.858 96.340,342.495 96.206 C 341.046 96.123,340.978 96.102,341.073 95.768 C 341.742 93.398,342.029 90.325,341.914 86.750 C 341.850 84.733,341.803 82.633,341.811 82.083 L 341.826 81.083 341.509 81.461 C 341.191 81.840,340.993 82.323,340.333 84.333 C 339.982 85.402,339.860 85.898,338.858 90.333 C 338.578 91.571,338.102 93.552,337.800 94.735 L 337.250 96.886 336.417 97.175 C 335.958 97.334,335.058 97.701,334.417 97.990 C 333.775 98.280,332.875 98.680,332.417 98.880 C 331.008 99.492,327.483 101.270,326.204 102.011 C 325.538 102.398,324.968 102.685,324.938 102.649 C 324.909 102.613,324.718 101.721,324.514 100.667 C 324.311 99.612,323.733 96.875,323.230 94.583 C 320.799 83.505,320.850 83.845,321.234 81.083 C 321.909 76.229,323.012 73.474,325.815 69.641 C 326.514 68.685,323.687 69.951,322.583 71.088 C 321.205 72.508,319.259 76.319,318.584 78.917 C 318.180 80.470,318.354 80.390,315.465 80.355 C 311.733 80.309,301.940 78.516,299.449 77.423 C 299.195 77.311,299.210 77.382,299.543 77.873 C 300.933 79.921,303.664 81.032,311.750 82.837 C 316.377 83.870,316.725 83.969,317.001 84.335 C 317.264 84.683,318.605 88.548,318.850 89.667 C 319.229 91.391,319.679 93.177,319.841 93.602 C 320.073 94.210,320.827 97.669,320.946 98.671 L 321.035 99.426 319.787 99.464 C 314.915 99.609,308.351 102.583,304.842 106.235 C 304.111 106.996,304.061 106.988,303.926 106.085 C 303.864 105.674,303.595 104.691,303.328 103.902 C 303.061 103.112,302.611 101.630,302.328 100.608 C 302.044 99.586,301.359 97.364,300.804 95.669 L 299.796 92.589 300.508 92.003 C 300.899 91.680,301.489 91.175,301.818 90.879 L 302.417 90.341 301.818 90.337 C 301.489 90.335,300.851 90.445,300.401 90.582 C 299.263 90.927,299.204 90.912,298.909 90.208 C 298.013 88.072,295.913 81.300,295.263 78.452 C 294.906 76.886,296.599 74.773,304.524 66.891 C 314.518 56.951,316.658 55.496,322.722 54.527 L 324.572 54.231 323.451 53.782 C 320.001 52.401,312.835 54.072,308.491 57.270 C 307.945 57.671,307.394 58.000,307.266 58.000 C 306.603 58.000,305.197 55.942,302.211 50.600 C 301.318 49.002,299.599 45.039,299.322 43.940 C 299.061 42.906,298.733 43.165,298.494 44.593 C 298.127 46.783,299.256 50.056,302.701 56.784 C 303.227 57.812,303.892 59.262,304.180 60.008 L 304.703 61.364 304.241 62.224 C 303.051 64.440,301.348 66.653,298.927 69.133 C 297.558 70.535,295.945 72.338,295.344 73.139 C 293.756 75.254,293.019 76.124,292.719 76.239 C 292.030 76.503,284.474 68.061,284.253 66.780 C 284.202 66.488,284.268 65.837,284.398 65.333 C 284.528 64.829,284.819 63.704,285.045 62.833 C 285.840 59.772,286.093 54.688,285.599 51.685 C 285.338 50.097,285.230 49.766,285.106 50.184 C 284.578 51.968,283.736 55.491,283.277 57.833 C 282.806 60.238,281.256 66.144,281.038 66.362 C 280.723 66.677,277.815 66.994,275.208 66.997 L 272.500 67.000 272.511 65.458 C 272.545 60.406,272.821 59.555,275.928 54.906 C 279.726 49.224,282.940 46.035,286.578 44.336 C 288.661 43.363,288.836 43.167,287.622 43.167 C 282.777 43.167,275.219 49.194,271.261 56.216 L 270.811 57.015 270.190 56.216 C 269.849 55.776,269.124 54.704,268.581 53.833 C 268.037 52.962,267.113 51.584,266.527 50.770 C 265.941 49.956,264.989 48.562,264.411 47.671 C 262.213 44.283,259.945 41.580,256.982 38.817 C 255.365 37.309,253.000 35.487,253.000 35.750 C 253.000 35.800,253.667 36.832,254.482 38.045 C 256.565 41.143,262.540 50.209,264.139 52.697 C 264.875 53.842,265.943 55.635,266.511 56.681 C 267.080 57.727,267.673 58.771,267.829 59.000 C 267.985 59.229,268.425 59.989,268.807 60.688 C 269.538 62.027,269.597 62.308,269.746 65.136 L 269.836 66.855 266.912 66.802 L 263.988 66.750 264.536 67.205 C 265.217 67.771,266.097 68.117,268.240 68.664 L 269.917 69.092 269.857 70.254 C 269.786 71.639,269.948 71.446,268.759 71.565 C 264.486 71.992,260.808 74.010,258.169 77.375 C 257.671 78.010,257.629 77.987,256.823 76.625 C 253.901 71.692,249.806 67.103,246.522 65.083 C 245.302 64.333,245.315 64.362,244.748 61.000 C 244.601 60.129,244.231 58.142,243.925 56.583 C 242.474 49.197,242.494 46.667,244.054 40.750 C 247.187 28.861,248.550 24.968,250.414 22.581 C 251.011 21.816,251.500 21.147,251.500 21.095 C 251.500 20.431,248.813 23.165,247.452 25.215 C 245.315 28.432,244.116 31.310,242.058 38.167 C 241.824 38.946,241.492 40.033,241.321 40.583 C 240.970 41.709,240.623 42.989,240.164 44.847 C 239.992 45.542,239.780 46.292,239.693 46.514 C 239.606 46.735,239.440 47.235,239.324 47.625 C 239.208 48.015,239.071 48.333,239.019 48.333 C 238.868 48.333,236.840 47.569,233.417 46.221 C 231.675 45.535,230.110 44.921,229.938 44.855 C 229.664 44.750,229.833 44.428,231.355 42.155 C 232.306 40.736,233.402 39.078,233.791 38.472 C 234.180 37.866,234.764 37.136,235.088 36.851 C 235.413 36.566,235.605 36.333,235.515 36.333 C 235.273 36.333,231.735 38.415,231.116 38.921 C 230.033 39.808,228.188 41.719,227.562 42.602 C 226.801 43.675,226.953 43.672,224.083 42.675 C 221.716 41.853,217.022 40.507,215.688 40.268 C 214.810 40.110,215.325 40.587,216.830 41.326 C 217.519 41.664,219.246 42.541,220.667 43.275 C 222.088 44.009,223.719 44.807,224.292 45.050 C 225.408 45.522,225.516 45.700,225.011 46.239 C 224.551 46.732,222.580 49.974,221.611 51.833 C 221.157 52.704,220.758 53.449,220.725 53.488 C 220.601 53.631,219.825 52.345,218.163 49.250 C 217.868 48.700,217.379 47.800,217.078 47.250 C 215.224 43.866,214.230 41.457,214.080 39.981 C 213.763 36.882,212.902 32.563,211.909 29.083 C 210.577 24.419,209.620 20.724,209.469 19.667 L 209.409 19.250 209.194 19.635 M203.643 41.086 C 204.410 41.221,206.242 41.443,207.716 41.578 C 210.898 41.869,210.537 41.590,211.926 44.833 C 214.198 50.139,216.160 53.965,218.455 57.565 L 218.869 58.213 218.534 58.981 C 218.161 59.839,217.897 60.815,217.249 63.750 C 216.556 66.883,216.706 66.703,215.734 65.563 C 215.275 65.024,214.345 63.871,213.667 63.000 C 212.334 61.288,209.269 57.647,208.347 56.681 C 204.607 52.760,203.746 51.270,203.237 47.840 C 202.914 45.660,202.576 44.219,201.994 42.539 C 201.307 40.557,201.198 40.653,203.643 41.086 M229.718 47.400 C 231.784 48.256,236.976 50.966,237.899 51.669 C 239.160 52.630,240.732 57.034,243.162 66.417 C 243.423 67.425,243.761 68.921,243.913 69.742 L 244.190 71.234 243.470 71.815 C 242.537 72.568,240.274 74.834,239.305 75.986 L 238.546 76.890 237.315 76.594 C 236.637 76.432,235.483 76.128,234.750 75.920 C 234.017 75.711,232.854 75.443,232.167 75.324 C 231.047 75.130,230.826 75.026,230.053 74.327 C 227.691 72.190,225.088 70.489,224.203 70.505 C 223.937 70.510,223.937 70.522,224.211 70.681 C 224.543 70.875,226.909 73.980,226.804 74.085 C 226.767 74.122,226.064 74.044,225.243 73.910 C 224.422 73.777,223.295 73.668,222.740 73.667 C 221.852 73.667,221.677 73.611,221.301 73.208 C 220.614 72.472,218.943 69.616,218.970 69.224 C 219.045 68.092,221.498 59.281,222.276 57.345 C 223.507 54.281,227.753 46.833,228.268 46.833 C 228.314 46.833,228.967 47.088,229.718 47.400 M192.250 53.362 C 195.532 53.906,196.631 54.162,200.500 55.286 C 204.152 56.346,204.289 56.432,206.436 58.972 C 207.159 59.827,208.125 60.964,208.583 61.497 C 210.145 63.316,212.248 65.914,213.239 67.250 C 213.783 67.983,214.438 68.859,214.695 69.196 C 215.494 70.243,215.561 70.511,215.343 71.764 C 214.980 73.850,214.910 73.933,213.394 74.066 C 211.214 74.257,206.873 74.976,205.500 75.374 C 204.851 75.562,202.889 76.609,202.743 76.845 C 202.688 76.934,202.980 76.945,203.450 76.873 C 204.477 76.715,213.767 76.712,213.925 76.869 C 213.990 76.935,213.815 77.722,213.535 78.619 C 213.255 79.516,212.978 80.438,212.920 80.667 C 212.862 80.896,212.713 81.346,212.589 81.667 C 212.465 81.987,212.236 82.850,212.079 83.583 C 211.845 84.683,211.168 87.315,210.914 88.115 C 210.867 88.265,210.697 88.258,210.217 88.084 C 209.869 87.958,208.571 87.539,207.333 87.154 C 203.940 86.099,200.758 84.966,198.917 84.158 C 198.733 84.077,198.154 83.826,197.629 83.600 C 193.644 81.882,191.472 71.134,194.009 65.683 C 195.211 63.101,192.932 65.627,191.542 68.417 C 189.458 72.601,189.720 77.602,192.281 82.532 C 193.349 84.586,193.386 84.312,191.927 85.126 L 191.253 85.501 190.395 82.859 C 189.923 81.405,189.084 79.174,188.531 77.900 C 186.265 72.675,186.301 68.894,188.678 62.833 C 189.127 61.688,189.798 60.233,190.168 59.601 C 190.983 58.207,190.949 58.126,189.928 59.025 C 188.863 59.962,187.928 61.261,186.987 63.110 C 185.649 65.737,185.489 66.378,185.380 69.543 L 185.284 72.335 184.434 71.533 C 181.760 69.010,178.780 67.707,176.046 67.865 C 173.979 67.985,173.542 68.423,175.372 68.543 C 179.362 68.804,183.651 71.826,185.958 76.003 C 186.678 77.306,188.500 84.653,188.500 86.252 C 188.500 86.593,188.329 86.667,186.625 87.064 C 181.065 88.358,178.535 88.549,175.445 87.908 C 174.728 87.759,174.107 87.671,174.066 87.712 C 173.819 87.959,176.291 89.381,177.660 89.780 L 178.583 90.049 176.996 90.566 C 175.608 91.019,174.769 91.427,173.614 92.211 C 173.097 92.562,171.659 90.365,169.766 86.333 C 169.228 85.188,168.207 83.050,167.497 81.583 C 166.088 78.670,165.333 76.732,165.333 76.025 C 165.333 75.135,166.599 71.272,167.171 70.417 C 167.233 70.325,167.604 69.650,167.997 68.917 C 168.844 67.337,169.635 66.144,171.260 64.000 C 172.401 62.495,172.803 62.011,175.221 59.235 C 176.945 57.255,179.710 55.353,183.583 53.484 L 185.250 52.679 187.250 52.772 C 188.350 52.823,190.600 53.088,192.250 53.362 M247.080 66.540 C 250.097 69.951,257.606 83.039,256.226 82.481 C 254.224 81.671,252.165 80.867,250.500 80.245 C 247.995 79.310,248.343 79.671,247.982 77.628 C 247.816 76.687,247.492 74.942,247.262 73.750 L 246.844 71.583 247.374 71.125 C 247.665 70.873,247.988 70.667,248.090 70.667 C 248.192 70.667,248.457 70.469,248.679 70.227 L 249.083 69.787 247.801 69.890 L 246.520 69.994 246.409 69.205 C 246.349 68.772,246.157 67.761,245.983 66.960 C 245.809 66.159,245.667 65.463,245.667 65.413 C 245.667 65.179,246.378 65.746,247.080 66.540 M277.460 69.657 C 282.337 69.826,281.797 69.563,285.501 73.583 C 286.092 74.225,287.440 75.650,288.496 76.751 C 290.721 79.069,292.277 81.323,293.328 83.750 C 293.725 84.667,294.259 85.870,294.515 86.423 C 294.986 87.441,295.700 89.192,296.444 91.155 C 296.771 92.020,296.807 92.252,296.626 92.353 C 296.025 92.689,293.452 94.603,292.417 95.484 C 289.205 98.217,287.091 99.833,286.728 99.833 C 285.658 99.833,280.586 100.824,279.477 101.250 C 279.311 101.313,278.908 100.800,278.161 99.577 C 277.568 98.606,276.693 97.187,276.216 96.423 C 272.449 90.388,272.179 89.084,272.171 76.898 C 272.166 69.521,272.191 69.262,272.900 69.409 C 273.184 69.469,275.236 69.580,277.460 69.657 M124.828 70.354 C 127.459 71.655,130.650 73.940,133.750 76.741 C 134.025 76.990,134.737 77.590,135.333 78.075 C 137.704 80.006,139.181 81.841,139.778 83.597 C 140.068 84.452,140.248 100.666,139.967 100.667 C 139.902 100.667,139.490 100.597,139.050 100.512 C 138.610 100.427,137.237 100.161,136.000 99.921 C 131.733 99.095,124.989 97.496,122.833 96.798 C 119.206 95.625,118.331 94.863,116.668 91.427 C 113.105 84.071,111.181 77.503,111.168 72.659 L 111.167 72.067 112.958 71.867 C 114.727 71.670,116.837 71.159,120.417 70.062 C 122.605 69.391,122.922 69.412,124.828 70.354 M155.279 70.104 C 159.710 73.429,164.111 79.492,167.288 86.648 C 171.175 95.404,171.046 94.561,168.856 96.911 C 167.832 98.009,165.950 100.285,164.530 102.140 C 163.636 103.309,160.656 107.751,159.836 109.138 C 159.228 110.166,159.059 110.343,158.765 110.260 C 158.574 110.207,157.817 110.116,157.083 110.059 L 155.750 109.955 156.917 110.570 C 157.558 110.908,158.153 111.254,158.238 111.338 C 158.332 111.432,157.892 112.526,157.103 114.158 C 156.394 115.625,155.642 117.247,155.432 117.763 L 155.050 118.702 154.478 117.559 C 153.743 116.092,152.339 113.999,150.754 112.010 C 150.064 111.145,149.500 110.345,149.500 110.232 C 149.500 109.783,151.434 105.773,152.747 103.500 C 155.143 99.351,162.179 94.175,166.554 93.342 C 168.814 92.912,168.772 92.779,166.417 92.908 C 161.633 93.168,156.509 95.312,152.509 98.727 C 151.392 99.680,151.443 99.684,151.173 98.625 C 150.440 95.744,147.854 91.280,146.036 89.756 C 145.221 89.073,143.942 88.333,143.575 88.333 C 143.244 88.333,143.221 88.263,143.279 87.458 C 143.724 81.339,145.579 77.913,151.854 71.625 C 154.228 69.246,154.170 69.271,155.279 70.104 M270.081 76.859 C 270.250 83.505,270.236 88.406,270.047 88.743 C 269.893 89.019,268.283 88.272,262.833 85.393 C 262.329 85.126,261.371 84.660,260.704 84.356 L 259.491 83.803 259.593 83.193 C 260.063 80.378,260.290 79.967,262.740 77.493 C 265.344 74.864,269.020 72.027,269.854 72.003 C 269.911 72.001,270.013 74.186,270.081 76.859 M218.333 73.677 C 218.333 73.763,218.221 73.833,218.083 73.833 C 217.826 73.833,217.752 73.637,217.940 73.449 C 218.073 73.316,218.333 73.466,218.333 73.677 M245.070 75.833 C 245.230 76.704,245.422 77.660,245.498 77.958 C 245.597 78.348,245.579 78.500,245.433 78.500 C 245.157 78.500,241.317 77.540,241.225 77.448 C 241.185 77.407,241.919 76.531,242.856 75.499 C 244.790 73.371,244.615 73.345,245.070 75.833 M223.167 77.162 C 226.933 77.485,229.830 78.077,230.274 78.613 C 230.739 79.175,233.036 82.883,233.640 84.049 C 234.332 85.382,234.259 88.989,233.430 94.417 C 232.990 97.297,232.218 101.000,232.058 101.000 C 231.490 101.000,223.406 102.791,222.631 103.088 C 222.466 103.151,222.054 102.627,221.291 101.381 C 219.528 98.506,218.612 97.778,216.474 97.554 C 215.268 97.428,215.264 97.393,216.625 98.774 C 217.749 99.915,219.732 103.694,219.374 104.012 C 219.306 104.072,218.537 104.329,217.667 104.582 C 216.796 104.835,215.408 105.245,214.583 105.494 C 212.773 106.040,212.860 106.220,213.413 103.055 C 214.120 99.017,214.170 98.570,214.323 94.917 C 214.497 90.782,214.791 88.427,215.698 83.917 C 216.067 82.083,216.431 80.208,216.507 79.750 C 216.582 79.292,216.762 78.482,216.906 77.950 C 217.049 77.419,217.167 76.939,217.167 76.884 C 217.167 76.772,220.318 76.917,223.167 77.162 M94.846 78.759 C 95.984 78.939,98.252 79.071,101.417 79.142 L 106.250 79.251 106.943 79.701 C 109.018 81.050,110.138 82.944,113.031 90.000 C 114.578 93.774,115.690 96.182,116.165 96.785 C 116.663 97.419,116.668 97.414,114.375 98.559 C 109.464 101.013,103.474 103.167,101.564 103.167 C 100.516 103.167,98.786 102.665,97.535 101.998 L 96.218 101.296 95.779 99.523 C 95.003 96.392,94.416 92.790,94.251 90.167 C 94.057 87.064,93.466 82.163,92.896 78.932 C 92.823 78.520,92.841 78.319,92.945 78.383 C 93.036 78.439,93.891 78.608,94.846 78.759 M235.447 79.300 L 236.477 79.588 235.918 80.474 L 235.360 81.359 234.722 80.388 C 234.371 79.854,234.023 79.323,233.950 79.208 C 233.767 78.922,234.188 78.948,235.447 79.300 M242.667 80.786 C 245.896 81.552,246.180 81.625,246.270 81.714 C 246.312 81.757,246.491 82.719,246.667 83.854 C 246.843 84.988,247.056 86.254,247.140 86.667 C 247.224 87.079,247.446 88.167,247.633 89.083 C 248.369 92.685,248.549 93.602,248.618 94.083 C 248.706 94.696,244.670 99.017,242.162 100.995 L 240.680 102.164 239.298 101.846 C 238.538 101.671,237.406 101.478,236.783 101.416 L 235.649 101.305 235.750 99.694 C 235.806 98.808,235.920 97.596,236.004 97.000 C 236.087 96.404,236.240 95.054,236.343 94.000 C 236.445 92.946,236.598 91.723,236.681 91.283 C 236.765 90.844,236.833 90.060,236.833 89.542 C 236.833 88.132,237.431 83.348,237.703 82.583 C 237.801 82.308,238.177 81.618,238.539 81.049 C 239.300 79.851,238.841 79.880,242.667 80.786 M251.167 83.335 C 255.704 84.757,256.652 85.497,256.371 87.402 L 256.250 88.221 255.342 87.027 C 254.330 85.696,254.264 85.637,254.522 86.292 C 256.325 90.874,256.318 90.631,254.667 91.008 C 253.979 91.165,252.982 91.415,252.450 91.564 C 251.152 91.926,251.216 91.955,250.996 90.896 C 250.889 90.381,250.438 88.617,249.994 86.977 C 249.550 85.337,249.135 83.656,249.073 83.242 L 248.961 82.489 249.855 82.847 C 250.347 83.044,250.938 83.263,251.167 83.335 M261.800 88.122 C 262.838 88.703,264.324 89.589,265.104 90.092 C 265.884 90.595,267.267 91.412,268.177 91.906 C 270.009 92.902,271.753 94.236,271.894 94.750 C 272.027 95.233,274.184 98.959,275.306 100.642 C 275.834 101.435,276.323 102.177,276.393 102.291 C 276.481 102.436,276.150 102.669,275.301 103.058 C 271.181 104.945,269.382 106.069,267.469 107.953 L 266.521 108.885 266.188 108.151 C 266.005 107.747,265.054 105.392,264.074 102.917 C 262.460 98.838,260.824 95.335,259.969 94.126 C 259.515 93.484,259.631 93.401,261.434 93.076 C 263.001 92.794,265.913 93.002,268.917 93.611 L 269.417 93.712 269.000 93.256 C 268.290 92.479,266.126 91.572,264.000 91.159 C 262.017 90.775,260.220 90.506,259.615 90.503 L 258.980 90.500 259.086 88.875 C 259.245 86.452,258.958 86.532,261.800 88.122 M200.168 88.010 C 201.313 88.382,202.550 88.750,202.917 88.828 C 208.071 89.920,210.939 91.141,211.292 92.393 C 211.574 93.392,211.548 93.418,210.513 93.170 C 209.573 92.944,209.006 93.012,204.750 93.854 C 200.842 94.627,197.507 95.579,194.370 96.818 C 193.288 97.245,193.468 97.691,192.827 93.000 C 192.745 92.404,192.535 91.242,192.359 90.417 C 191.974 88.612,191.767 88.846,194.500 87.999 C 195.737 87.616,196.825 87.275,196.917 87.242 C 197.228 87.130,198.082 87.332,200.168 88.010 M145.632 92.017 C 148.112 96.946,148.769 101.096,147.727 105.250 C 147.189 107.400,147.198 107.395,146.122 106.056 C 142.612 101.691,141.899 97.451,143.168 88.500 C 143.224 88.108,144.792 90.347,145.632 92.017 M189.068 90.792 C 189.555 94.871,189.654 96.048,189.694 98.250 C 189.750 101.255,189.712 101.387,188.633 101.934 C 186.870 102.827,183.284 106.896,180.755 110.875 C 180.129 111.860,179.546 112.667,179.461 112.667 C 179.376 112.667,178.656 112.437,177.862 112.156 C 176.078 111.526,173.315 110.930,170.083 110.479 C 168.735 110.291,163.397 110.464,163.621 110.688 C 163.789 110.855,165.556 111.371,168.917 112.233 C 171.490 112.894,177.972 114.986,178.104 115.199 C 178.149 115.274,177.998 115.690,177.766 116.125 C 177.194 117.200,175.919 120.245,175.655 121.167 C 175.537 121.579,175.418 121.946,175.391 121.982 C 175.297 122.107,174.167 121.147,174.167 120.941 C 174.167 120.620,176.454 117.162,177.132 116.458 C 178.677 114.854,176.442 116.454,174.285 118.495 L 172.850 119.853 170.999 118.272 C 167.242 115.060,162.346 111.500,161.687 111.500 C 160.582 111.500,168.179 100.999,172.788 96.155 C 176.603 92.147,181.733 90.393,186.167 91.583 C 186.671 91.719,187.158 91.829,187.250 91.829 C 187.592 91.827,185.749 90.855,185.214 90.754 C 184.499 90.620,184.668 90.336,185.468 90.326 C 185.807 90.321,186.571 90.218,187.167 90.095 C 188.996 89.720,188.938 89.699,189.068 90.792 M211.555 96.292 C 211.438 97.277,211.269 98.758,211.181 99.583 C 211.093 100.408,210.909 101.946,210.773 103.000 C 210.636 104.054,210.475 105.523,210.414 106.265 L 210.303 107.612 207.883 110.265 C 206.551 111.723,204.849 113.554,204.101 114.333 C 200.852 117.717,198.528 120.304,196.048 123.299 C 194.417 125.268,192.755 127.166,192.660 127.166 C 192.370 127.168,188.827 119.351,188.466 117.917 C 187.668 114.739,190.139 104.884,192.446 102.042 C 193.555 100.677,195.273 99.917,204.583 96.668 C 205.592 96.317,206.885 95.834,207.458 95.597 C 208.394 95.208,210.846 94.554,211.510 94.515 C 211.742 94.502,211.747 94.688,211.555 96.292 M298.254 96.807 C 299.344 100.975,300.321 107.157,300.330 109.936 C 300.334 111.054,299.778 112.025,297.005 115.750 C 296.391 116.575,295.542 117.721,295.119 118.298 C 294.696 118.874,294.321 119.361,294.286 119.381 C 293.991 119.547,291.672 117.350,291.596 116.834 C 291.448 115.823,291.021 110.930,290.653 106.023 L 290.299 101.296 292.273 99.439 C 293.359 98.419,294.990 96.872,295.898 96.003 C 297.794 94.186,297.548 94.102,298.254 96.807 M254.667 95.482 C 254.667 95.564,254.512 96.133,254.323 96.745 C 254.134 97.358,253.654 98.997,253.257 100.388 C 252.860 101.779,252.257 103.779,251.916 104.833 C 251.575 105.888,251.149 107.309,250.969 107.992 C 250.561 109.538,250.303 109.869,246.028 114.316 C 244.213 116.205,242.390 118.125,241.978 118.583 C 239.988 120.797,237.913 123.627,236.417 126.167 C 236.067 126.763,235.764 127.272,235.744 127.298 C 235.689 127.373,232.711 125.363,231.500 124.433 C 230.904 123.975,230.388 123.581,230.353 123.556 C 230.064 123.353,230.502 118.602,230.930 117.302 C 231.677 115.029,237.253 108.446,240.578 105.910 L 241.135 105.484 243.443 105.906 C 244.712 106.137,246.237 106.412,246.833 106.516 C 247.429 106.619,248.433 106.844,249.065 107.015 C 250.484 107.398,250.687 107.294,249.973 106.548 C 248.944 105.472,245.205 103.333,244.353 103.333 C 243.936 103.333,244.228 102.983,245.375 102.106 C 246.040 101.598,246.958 100.878,247.417 100.506 C 251.482 97.205,254.667 94.998,254.667 95.482 M258.588 97.083 C 261.285 104.090,262.977 108.912,262.799 109.090 C 262.750 109.139,262.007 109.092,261.147 108.986 C 259.577 108.793,256.775 108.870,254.991 109.155 C 254.492 109.234,254.051 109.269,254.011 109.230 C 253.865 109.090,254.759 105.968,256.177 101.667 C 256.978 99.237,257.721 96.924,257.828 96.525 C 258.061 95.655,258.029 95.632,258.588 97.083 M121.709 100.714 C 122.936 103.288,123.951 110.128,123.224 110.917 C 123.055 111.100,122.702 111.513,122.439 111.833 C 122.177 112.154,121.380 113.055,120.668 113.836 C 119.956 114.616,118.869 115.853,118.252 116.586 C 117.634 117.318,117.069 117.981,116.996 118.060 C 116.923 118.139,116.423 117.839,115.885 117.393 C 113.600 115.501,110.403 113.596,105.141 110.992 L 101.698 109.288 102.041 108.519 C 102.229 108.096,102.511 107.375,102.667 106.917 C 102.903 106.225,103.046 106.051,103.517 105.888 C 103.828 105.780,104.871 105.429,105.833 105.108 C 109.035 104.041,114.745 101.810,118.141 100.299 C 120.202 99.383,121.126 99.490,121.709 100.714 M125.375 100.094 C 127.709 100.488,129.833 101.009,129.833 101.186 C 129.833 101.652,128.779 103.417,127.035 105.870 C 126.021 107.297,125.834 107.348,125.832 106.198 C 125.830 104.427,124.730 101.226,123.852 100.433 C 123.119 99.771,123.267 99.738,125.375 100.094 M321.549 101.458 C 322.426 105.404,322.300 106.257,320.209 110.554 C 319.510 111.991,319.482 112.023,319.001 111.917 C 318.615 111.832,315.472 110.612,314.189 110.049 C 313.108 109.575,316.572 112.690,317.851 113.343 C 318.695 113.773,318.702 113.733,317.280 116.613 C 316.609 117.972,315.737 119.770,315.343 120.609 L 314.626 122.136 313.616 121.056 C 312.438 119.797,311.717 119.383,310.506 119.270 L 309.630 119.189 310.547 120.053 C 311.442 120.895,312.110 121.999,312.830 123.824 L 313.154 124.647 312.242 126.365 C 311.741 127.310,310.987 128.781,310.568 129.635 C 310.080 130.629,309.723 131.168,309.574 131.135 C 309.311 131.077,305.560 128.443,304.667 127.689 L 304.083 127.197 305.862 123.705 C 307.951 119.605,308.675 118.425,309.353 118.012 C 309.965 117.640,309.686 117.480,308.730 117.655 C 306.568 118.050,304.727 120.077,302.630 124.369 C 302.329 124.984,302.035 125.491,301.977 125.494 C 301.779 125.505,298.758 123.466,297.833 122.697 C 297.329 122.278,296.889 121.915,296.854 121.891 C 296.820 121.867,297.289 121.226,297.895 120.466 C 298.502 119.705,300.252 117.433,301.786 115.417 C 304.913 111.303,306.557 109.563,308.750 108.044 C 309.575 107.473,311.445 106.139,312.906 105.079 C 316.096 102.766,320.401 100.184,321.089 100.170 C 321.184 100.168,321.391 100.748,321.549 101.458 M335.902 101.452 C 335.640 102.074,335.182 103.006,334.883 103.523 C 334.584 104.040,334.272 104.640,334.189 104.856 C 334.107 105.073,333.759 105.850,333.417 106.583 C 332.780 107.951,332.470 108.735,331.316 111.908 C 330.170 115.061,330.019 115.167,327.507 114.575 C 326.599 114.361,321.668 112.857,321.542 112.756 C 321.293 112.557,325.202 106.463,326.065 105.705 C 327.657 104.307,335.924 99.919,336.313 100.265 C 336.348 100.295,336.163 100.830,335.902 101.452 M133.481 102.000 C 136.501 102.727,137.403 102.925,138.417 103.080 C 140.604 103.416,142.058 104.618,145.319 108.787 C 146.167 109.870,146.172 109.758,145.148 112.392 C 144.310 114.546,143.611 116.359,142.666 118.833 C 142.198 120.056,141.278 122.661,140.776 124.180 C 140.266 125.720,139.622 128.617,139.521 129.818 L 139.417 131.053 138.537 129.902 C 137.103 128.022,136.085 126.883,132.765 123.442 C 127.794 118.287,127.290 117.330,126.823 112.167 L 126.620 109.917 127.113 109.083 C 128.897 106.071,130.159 103.152,130.222 101.892 C 130.257 101.196,130.123 101.192,133.481 102.000 M188.349 103.802 C 188.015 104.458,186.776 107.627,186.481 108.583 C 186.347 109.018,186.108 110.039,185.145 114.292 C 185.036 114.773,184.928 115.167,184.905 115.167 C 184.836 115.167,182.142 114.005,181.983 113.906 C 181.735 113.753,182.925 111.628,186.201 106.376 C 188.053 103.408,189.333 101.873,188.349 103.802 M287.946 104.822 C 287.818 106.036,287.843 107.173,288.061 109.822 C 288.405 114.017,288.451 114.570,288.600 116.236 C 288.702 117.380,288.684 117.542,288.463 117.458 C 286.695 116.779,281.997 115.646,280.537 115.547 C 278.809 115.429,278.864 115.643,279.839 112.817 C 281.070 109.245,282.197 107.779,285.845 104.998 C 286.929 104.172,287.865 103.416,287.925 103.320 C 288.114 103.014,288.117 103.213,287.946 104.822 M282.333 103.981 C 282.333 104.280,281.557 104.657,281.356 104.456 C 281.089 104.189,281.120 104.037,281.458 103.948 C 281.968 103.815,282.333 103.829,282.333 103.981 M237.135 104.913 C 237.184 104.962,236.237 105.996,235.029 107.210 C 232.345 109.907,231.182 111.353,229.739 113.792 C 229.129 114.823,228.577 115.667,228.512 115.667 C 228.261 115.667,223.731 106.713,223.898 106.546 C 223.940 106.505,224.223 106.405,224.528 106.325 C 224.834 106.245,225.721 105.991,226.500 105.759 C 229.622 104.832,236.507 104.285,237.135 104.913 M278.466 105.625 C 279.461 107.040,279.433 107.210,277.298 112.667 C 276.886 113.721,276.502 114.715,276.446 114.875 C 276.378 115.068,276.169 115.167,275.826 115.167 C 275.289 115.167,272.856 115.918,272.609 116.161 C 272.531 116.236,272.794 116.349,273.192 116.411 C 275.412 116.755,275.696 117.016,275.171 118.239 L 274.843 119.005 274.046 118.394 C 273.217 117.757,271.867 117.077,271.722 117.223 C 271.625 117.320,273.408 120.606,273.795 121.043 C 274.092 121.379,274.127 121.239,272.920 124.583 C 272.491 125.775,271.583 128.426,270.903 130.474 C 269.513 134.661,269.322 135.017,268.301 135.323 C 267.588 135.537,265.494 136.449,262.926 137.663 C 262.188 138.013,261.096 138.527,260.500 138.806 C 259.904 139.085,259.074 139.510,258.655 139.751 L 257.894 140.189 256.114 139.247 C 255.127 138.725,254.333 138.199,254.333 138.067 C 254.333 137.828,255.548 135.665,256.805 133.667 C 257.421 132.688,258.210 131.340,259.020 129.886 C 259.182 129.594,259.496 129.069,259.716 128.719 C 259.936 128.369,260.513 127.333,260.997 126.417 C 261.482 125.500,262.317 123.987,262.854 123.054 C 263.390 122.121,264.621 119.609,265.589 117.471 C 266.557 115.333,267.407 113.526,267.477 113.456 C 267.584 113.350,269.292 113.591,270.799 113.925 C 271.435 114.066,270.846 113.362,269.677 112.583 C 268.479 111.786,268.491 111.854,269.375 110.875 C 271.548 108.471,272.731 107.548,275.000 106.487 C 275.779 106.123,276.717 105.681,277.083 105.506 C 277.974 105.080,278.090 105.090,278.466 105.625 M98.969 105.998 C 99.115 105.999,99.170 106.180,99.136 106.542 C 99.069 107.236,98.861 107.202,98.363 106.415 L 97.965 105.785 98.357 105.890 C 98.573 105.948,98.849 105.996,98.969 105.998 M221.431 107.543 C 221.531 107.749,222.681 110.044,223.986 112.644 C 228.714 122.063,228.724 122.261,224.226 117.708 C 222.618 116.081,219.989 113.425,218.385 111.806 C 215.843 109.243,215.506 108.842,215.775 108.704 C 215.945 108.616,217.133 108.266,218.417 107.927 C 219.700 107.587,220.825 107.283,220.917 107.251 C 221.216 107.147,221.248 107.165,221.431 107.543 M214.633 110.468 C 215.535 111.871,218.023 114.962,221.250 118.690 C 223.868 121.714,223.936 121.787,226.137 123.902 L 227.509 125.221 227.463 127.401 L 227.417 129.582 225.417 129.767 C 222.177 130.068,217.622 131.444,212.917 133.543 L 210.917 134.436 210.895 131.093 C 210.846 123.487,209.612 118.080,207.367 115.634 L 206.955 115.185 209.841 112.350 C 213.418 108.836,213.551 108.784,214.633 110.468 M101.093 112.020 L 101.833 112.206 101.833 114.152 C 101.833 116.077,101.416 121.684,101.236 122.167 C 101.085 122.574,100.772 127.156,100.812 128.378 C 100.883 130.574,100.291 130.970,97.377 130.670 C 95.331 130.460,95.083 130.370,94.906 129.777 C 94.202 127.415,91.542 122.917,89.693 120.961 C 89.001 120.230,88.999 120.235,90.266 119.908 C 93.555 119.059,96.883 116.427,99.476 112.625 C 100.074 111.749,100.051 111.757,101.093 112.020 M96.833 112.263 C 96.833 113.038,92.088 118.133,90.188 119.397 L 88.965 120.211 88.308 119.534 C 87.031 118.218,85.167 118.733,85.167 120.402 L 85.167 120.896 85.634 120.448 C 86.901 119.234,88.347 120.915,91.401 127.156 C 92.863 130.143,92.871 129.941,91.311 129.518 C 82.969 127.256,82.214 126.780,80.222 122.524 C 79.722 121.457,79.206 120.358,79.075 120.083 C 78.855 119.622,78.863 119.564,79.182 119.333 C 79.372 119.196,79.921 118.740,80.401 118.320 C 82.449 116.530,82.872 116.331,85.880 115.735 C 89.462 115.025,90.306 114.745,95.167 112.656 C 96.210 112.207,96.833 112.061,96.833 112.263 M104.389 113.069 C 105.046 113.375,106.408 114.131,107.417 114.749 C 108.425 115.366,109.869 116.247,110.626 116.704 C 112.887 118.072,114.535 119.226,114.797 119.627 L 115.043 120.004 110.980 119.896 C 106.753 119.783,105.401 119.923,104.401 120.578 C 104.051 120.808,104.046 120.794,103.852 118.665 C 103.670 116.668,102.950 113.508,102.477 112.623 C 102.241 112.182,102.725 112.295,104.389 113.069 M262.292 112.766 C 263.771 112.862,263.833 112.882,263.833 113.259 C 263.833 114.132,261.303 119.484,258.913 123.667 C 258.154 124.996,257.205 126.683,256.805 127.417 C 256.404 128.150,255.853 129.147,255.580 129.632 C 254.968 130.718,251.960 135.617,251.604 136.108 C 251.110 136.787,249.809 137.350,247.768 137.768 C 246.678 137.990,244.753 138.471,243.489 138.836 C 240.773 139.621,240.734 139.624,240.594 139.068 C 240.535 138.830,240.161 137.949,239.765 137.110 C 237.643 132.620,237.428 131.533,238.699 131.736 C 239.059 131.793,239.818 131.883,240.386 131.935 L 241.417 132.029 240.553 131.518 C 240.079 131.237,239.385 130.885,239.012 130.735 C 238.639 130.586,238.334 130.416,238.336 130.357 C 238.341 130.147,238.815 128.898,239.294 127.833 C 240.535 125.079,250.923 114.165,253.454 112.957 L 254.417 112.498 257.583 112.582 C 259.325 112.628,261.444 112.711,262.292 112.766 M150.115 114.874 C 151.714 116.973,152.195 117.778,151.743 117.602 C 150.276 117.029,147.912 116.333,147.435 116.333 C 146.614 116.333,146.616 116.282,147.533 114.336 C 148.340 112.626,148.363 112.597,148.637 112.946 C 148.791 113.141,149.456 114.009,150.115 114.874 M160.886 113.190 C 161.787 113.661,164.587 115.987,167.075 118.333 C 167.999 119.204,169.223 120.323,169.794 120.820 C 171.043 121.906,171.030 121.687,169.936 123.278 C 169.080 124.524,168.072 126.502,167.422 128.208 C 167.044 129.203,167.415 129.431,164.285 126.279 C 161.735 123.711,158.749 121.143,157.658 120.579 C 157.388 120.439,157.167 120.238,157.167 120.133 C 157.167 119.837,158.673 116.205,159.260 115.083 C 159.548 114.533,159.910 113.840,160.063 113.542 C 160.377 112.932,160.385 112.928,160.886 113.190 M123.838 115.605 C 123.923 116.418,124.136 117.470,124.309 117.942 L 124.626 118.800 123.688 118.906 C 123.172 118.964,121.980 119.133,121.039 119.281 C 118.622 119.661,118.636 119.490,121.255 116.666 C 122.147 115.704,123.031 114.711,123.219 114.460 C 123.658 113.872,123.656 113.867,123.838 115.605 M326.151 117.245 C 330.162 118.746,330.500 119.164,331.657 124.062 C 331.887 125.038,332.022 124.907,330.447 125.230 C 327.426 125.849,322.125 128.572,319.708 130.745 C 318.720 131.633,318.735 131.629,318.590 131.051 C 318.396 130.278,317.335 127.661,316.451 125.776 L 315.603 123.969 317.055 121.109 C 317.853 119.537,318.930 117.489,319.448 116.559 L 320.389 114.867 321.653 115.451 C 322.348 115.772,324.372 116.579,326.151 117.245 M206.219 116.542 C 206.269 116.748,206.389 117.217,206.486 117.583 C 207.083 119.846,207.355 123.736,207.340 129.812 C 207.325 135.460,207.512 134.831,205.278 136.750 C 203.720 138.089,198.607 142.548,197.021 143.952 C 196.216 144.666,196.229 144.675,196.101 143.292 C 196.040 142.627,195.877 140.996,195.741 139.667 C 195.604 138.337,195.420 136.162,195.331 134.833 C 195.243 133.504,195.100 131.592,195.014 130.583 C 194.826 128.395,194.824 128.398,197.661 125.244 C 198.077 124.782,199.385 123.282,200.567 121.910 C 202.621 119.529,205.799 116.187,206.022 116.173 C 206.080 116.170,206.169 116.335,206.219 116.542 M182.723 117.300 C 184.445 118.164,184.266 117.935,187.172 123.000 C 187.514 123.596,188.635 125.546,189.663 127.333 C 192.025 131.439,192.140 131.820,192.673 137.333 C 193.083 141.576,193.407 144.296,193.665 145.656 C 193.984 147.340,193.915 147.549,192.495 149.218 C 192.358 149.379,191.322 147.739,189.623 144.667 C 187.306 140.479,185.125 136.584,185.004 136.417 C 184.937 136.325,184.225 134.975,183.420 133.417 C 182.616 131.858,181.678 130.096,181.336 129.500 C 179.717 126.676,178.167 123.688,178.167 123.391 C 178.167 121.823,180.403 116.245,180.950 116.449 C 181.115 116.511,181.913 116.893,182.723 117.300 M148.277 117.356 C 149.719 118.116,152.311 119.839,152.698 120.293 C 153.155 120.829,153.401 123.558,153.438 128.500 C 153.486 134.838,153.669 137.518,154.417 142.833 C 154.952 146.627,155.115 147.648,155.599 150.210 C 155.819 151.379,156.000 152.411,156.000 152.504 C 156.000 152.596,155.194 152.262,154.208 151.761 C 151.598 150.435,145.436 147.805,143.476 147.179 C 142.757 146.950,142.672 146.721,142.669 145.009 C 142.668 144.327,142.596 142.752,142.510 141.509 C 141.717 130.102,142.051 127.756,145.769 118.625 C 146.681 116.385,146.557 116.448,148.277 117.356 M279.809 118.256 C 282.769 119.126,283.435 119.318,284.167 119.512 C 284.579 119.622,285.629 119.919,286.500 120.172 C 287.371 120.425,288.646 120.762,289.333 120.920 C 290.021 121.078,290.940 121.431,291.376 121.705 L 292.168 122.202 291.530 122.976 C 291.179 123.402,290.267 124.575,289.502 125.583 C 288.232 127.259,286.886 128.844,285.059 130.817 L 284.369 131.562 283.783 130.406 C 282.437 127.748,279.647 123.725,277.907 121.933 L 276.952 120.949 277.328 119.933 C 277.534 119.374,277.783 118.673,277.880 118.375 C 278.091 117.725,278.016 117.730,279.809 118.256 M77.113 121.802 C 77.404 122.332,77.954 123.550,78.335 124.508 C 78.715 125.466,79.251 126.615,79.524 127.061 C 80.186 128.142,80.128 128.213,78.225 128.654 C 77.322 128.862,76.212 129.139,75.757 129.268 C 75.303 129.397,74.057 129.649,72.988 129.829 C 71.919 130.008,70.153 130.380,69.064 130.655 C 67.975 130.930,66.435 131.267,65.643 131.404 C 64.851 131.541,63.856 131.740,63.431 131.847 C 63.006 131.954,62.268 132.004,61.791 131.958 L 60.923 131.875 61.478 132.339 C 62.701 133.360,68.183 133.482,72.500 132.585 C 73.096 132.461,74.108 132.271,74.750 132.163 C 76.225 131.914,78.045 131.460,79.732 130.921 C 81.731 130.281,84.626 130.358,88.750 131.161 C 89.758 131.358,91.157 131.598,91.859 131.695 L 93.134 131.872 93.405 133.478 C 93.554 134.361,93.755 135.527,93.852 136.068 C 94.266 138.394,93.778 148.182,93.306 147.032 C 93.137 146.623,89.176 144.420,87.386 143.741 C 80.358 141.072,76.123 140.399,73.605 141.552 C 72.435 142.087,72.336 142.496,73.405 142.376 C 74.814 142.217,79.567 143.473,82.469 144.771 C 82.990 145.004,84.467 145.645,85.750 146.194 C 89.702 147.888,92.331 149.463,92.335 150.141 C 92.336 150.293,92.382 150.691,92.438 151.027 C 92.566 151.804,92.569 151.802,88.333 153.215 C 82.156 155.275,81.879 155.226,78.627 151.513 C 71.792 143.711,66.543 140.442,62.250 141.313 C 61.497 141.466,61.485 141.459,63.507 142.129 C 65.586 142.818,67.520 144.219,70.910 147.492 C 72.472 149.000,74.669 151.122,75.792 152.207 C 76.915 153.291,77.833 154.254,77.833 154.346 C 77.833 154.681,77.155 155.772,76.379 156.687 C 75.941 157.203,74.772 158.590,73.781 159.771 C 71.627 162.335,71.897 162.206,71.083 161.058 C 70.717 160.542,69.554 159.001,68.500 157.635 C 64.100 151.933,62.152 148.666,60.917 144.917 C 60.584 143.906,59.483 141.408,58.463 139.351 L 56.613 135.619 57.186 135.101 C 58.374 134.027,61.124 130.843,62.167 129.333 C 63.542 127.341,64.831 125.956,65.627 125.615 C 65.970 125.468,67.862 124.667,69.833 123.834 C 74.888 121.697,76.172 121.126,76.269 120.970 C 76.436 120.699,76.592 120.853,77.113 121.802 M108.350 122.170 C 109.212 122.356,111.042 122.578,112.417 122.665 C 113.792 122.751,115.384 122.868,115.955 122.924 L 116.994 123.026 117.321 124.138 C 117.500 124.750,117.701 125.475,117.766 125.750 C 118.605 129.310,122.606 137.030,124.848 139.417 L 125.318 139.917 121.534 139.924 C 119.453 139.928,116.100 139.965,114.083 140.007 C 110.512 140.081,110.397 140.073,109.644 139.699 C 107.003 138.385,104.066 133.423,103.755 129.750 C 103.585 127.733,103.882 122.177,104.170 121.994 C 104.591 121.728,106.709 121.817,108.350 122.170 M125.030 122.743 C 128.370 123.613,134.863 129.224,137.236 133.292 C 138.982 136.284,139.613 138.708,140.142 144.463 C 140.300 146.176,140.484 146.097,138.193 145.304 C 131.933 143.140,129.094 141.065,125.782 136.237 C 123.763 133.294,122.302 130.620,121.281 128.000 C 120.317 125.526,119.477 123.134,119.548 123.063 C 119.975 122.636,123.769 122.415,125.030 122.743 M160.680 126.949 C 166.800 132.421,167.202 133.230,167.660 141.000 C 167.941 145.774,168.605 150.157,169.415 152.583 C 169.886 153.998,170.176 153.768,167.084 154.429 C 165.656 154.735,163.759 155.169,162.868 155.394 C 161.146 155.829,160.698 155.757,160.018 154.938 C 159.353 154.136,157.835 148.735,157.423 145.698 C 157.054 142.988,157.013 142.637,156.839 140.750 C 156.755 139.833,156.558 138.146,156.402 137.000 C 155.838 132.863,156.011 122.875,156.638 123.366 C 156.791 123.485,158.610 125.098,160.680 126.949 M174.530 125.458 C 177.003 127.954,178.484 130.235,181.540 136.250 C 182.286 137.717,183.729 140.379,184.748 142.167 C 185.767 143.954,186.906 145.979,187.279 146.667 C 187.652 147.354,188.241 148.442,188.589 149.083 C 190.348 152.328,190.341 152.297,189.826 154.024 C 189.441 155.317,189.524 155.284,187.731 154.843 C 186.398 154.515,182.136 153.772,180.547 153.590 C 178.387 153.342,174.149 153.007,173.143 153.003 L 172.036 153.000 171.760 152.310 C 171.418 151.454,171.055 149.411,170.744 146.583 C 170.613 145.392,170.427 143.892,170.331 143.250 C 168.901 133.731,169.158 130.825,171.952 124.958 C 172.703 123.381,172.418 123.326,174.530 125.458 M277.231 125.816 C 277.921 126.815,278.631 127.884,278.808 128.191 C 278.984 128.498,279.539 129.462,280.039 130.333 C 280.540 131.204,281.112 132.187,281.311 132.518 L 281.672 133.120 280.794 133.218 C 279.858 133.322,272.982 133.205,272.860 133.082 C 272.750 132.972,275.797 124.002,275.946 124.000 C 275.962 124.000,276.540 124.817,277.231 125.816 M296.221 125.135 C 296.879 125.668,298.147 126.642,299.039 127.299 C 300.855 128.638,300.765 128.339,299.921 130.250 C 298.927 132.501,298.427 133.323,297.917 133.539 C 297.344 133.781,293.555 133.791,290.129 133.560 L 288.008 133.417 289.022 131.833 C 290.450 129.604,294.660 124.167,294.958 124.167 C 294.996 124.167,295.564 124.602,296.221 125.135 M332.208 127.013 C 332.279 127.418,332.524 128.950,332.753 130.417 C 332.982 131.883,333.296 133.662,333.451 134.369 C 333.769 135.815,333.697 136.022,333.016 135.619 C 331.767 134.881,329.136 134.638,327.469 135.105 C 326.361 135.416,326.211 135.663,327.125 135.674 C 328.137 135.686,331.343 137.322,331.331 137.821 C 331.320 138.264,326.319 143.211,324.167 144.908 C 323.479 145.450,322.335 146.461,321.623 147.153 C 320.539 148.209,320.283 148.383,320.042 148.231 C 319.670 147.997,317.597 145.140,317.092 144.165 L 316.702 143.414 317.412 141.749 C 317.802 140.833,318.286 139.558,318.486 138.917 C 319.949 134.235,324.765 129.307,330.303 126.824 C 332.011 126.058,332.041 126.061,332.208 127.013 M314.552 127.870 C 315.312 129.891,316.388 134.711,316.352 135.934 C 316.335 136.526,315.164 139.333,314.934 139.333 C 314.789 139.333,313.658 137.169,313.180 135.978 C 312.909 135.303,312.458 134.300,312.179 133.750 C 311.900 133.200,311.670 132.653,311.669 132.534 C 311.661 131.772,313.878 126.905,314.154 127.076 C 314.226 127.120,314.405 127.477,314.552 127.870 M230.955 128.208 C 231.394 128.598,231.971 129.086,232.236 129.294 C 232.893 129.809,232.733 129.884,231.262 129.746 L 230.000 129.628 230.000 128.564 C 230.000 127.301,229.952 127.319,230.955 128.208 M303.667 130.605 C 304.079 130.936,304.829 131.512,305.333 131.886 C 308.183 133.996,309.648 135.490,310.187 136.833 C 310.389 137.337,310.870 138.425,311.255 139.250 C 311.640 140.075,312.131 141.162,312.346 141.667 C 312.561 142.171,312.828 142.761,312.939 142.979 C 313.050 143.197,313.098 143.497,313.046 143.646 C 312.857 144.184,311.114 147.964,310.068 150.102 L 308.998 152.288 308.207 152.400 C 307.773 152.462,306.854 152.583,306.167 152.669 C 302.192 153.171,299.026 154.012,292.546 156.290 C 290.515 157.005,290.165 157.085,290.103 156.854 C 290.002 156.477,289.565 154.433,289.350 153.333 C 289.251 152.829,288.975 151.517,288.737 150.417 C 287.998 147.012,287.880 146.330,287.560 143.667 C 287.262 141.180,287.161 136.450,287.402 136.209 C 287.532 136.079,292.532 136.595,295.024 136.996 C 297.102 137.331,297.081 137.317,300.449 140.605 C 301.610 141.739,302.618 142.667,302.688 142.667 C 302.758 142.667,303.311 143.285,303.917 144.042 C 304.523 144.798,305.749 146.167,306.641 147.083 C 307.534 148.000,308.420 149.068,308.611 149.457 L 308.957 150.165 309.066 149.345 C 309.529 145.854,307.048 141.840,301.105 136.468 L 300.294 135.734 300.670 134.909 C 300.877 134.455,301.188 133.671,301.360 133.167 C 301.715 132.130,302.707 129.999,302.833 130.002 C 302.879 130.003,303.254 130.274,303.667 130.605 M235.079 132.326 C 235.500 133.139,237.514 138.355,237.754 139.250 C 237.876 139.708,238.024 140.207,238.083 140.358 C 238.169 140.580,237.929 140.717,236.803 141.086 C 234.880 141.716,233.141 142.423,231.651 143.180 L 230.386 143.823 230.193 142.255 C 230.087 141.392,230.000 138.844,230.000 136.593 L 230.000 132.500 230.458 132.490 C 230.710 132.485,231.592 132.343,232.417 132.175 C 234.595 131.733,234.778 131.743,235.079 132.326 M97.934 132.760 C 100.228 133.292,101.106 134.153,103.307 138.027 C 105.485 141.860,105.301 143.447,102.394 145.920 C 100.225 147.765,95.828 150.427,95.840 149.889 C 95.856 149.124,96.345 144.328,96.486 143.554 C 96.955 140.976,96.704 135.583,96.002 133.168 C 95.909 132.848,95.833 132.566,95.833 132.543 C 95.833 132.417,96.953 132.533,97.934 132.760 M227.307 139.917 L 227.250 145.750 225.586 147.474 C 224.670 148.422,223.583 149.667,223.169 150.241 C 221.218 152.945,219.559 155.381,219.104 156.209 C 217.697 158.771,216.167 161.652,216.167 161.738 C 216.167 161.795,215.858 162.495,215.480 163.295 C 213.892 166.659,213.654 167.252,212.921 169.688 C 212.498 171.092,211.980 173.095,211.770 174.140 L 211.387 176.038 210.722 174.977 C 210.355 174.394,209.781 173.413,209.444 172.796 C 208.619 171.285,207.444 169.484,206.603 168.442 C 206.222 167.970,205.614 167.171,205.252 166.667 C 204.017 164.947,201.512 162.025,199.939 160.469 C 197.952 158.505,197.572 157.313,196.990 151.211 L 196.780 149.006 197.681 148.049 C 201.519 143.979,209.112 138.794,214.500 136.565 C 218.441 134.934,219.532 134.609,224.167 133.684 L 227.250 133.069 227.307 133.576 C 227.338 133.855,227.338 136.708,227.307 139.917 M283.906 137.498 C 284.141 138.242,284.333 139.084,284.333 139.370 C 284.333 139.656,284.409 140.383,284.503 140.986 C 284.596 141.590,284.748 142.608,284.842 143.250 C 285.138 145.282,285.352 146.538,285.682 148.167 C 285.858 149.037,286.152 150.789,286.336 152.060 C 286.519 153.330,286.703 154.423,286.743 154.489 C 286.972 154.859,286.854 159.326,286.589 160.333 C 285.841 163.176,285.101 164.499,282.083 168.389 C 279.478 171.748,278.184 173.543,277.117 175.281 C 276.302 176.606,274.849 178.686,274.116 179.574 L 273.712 180.065 272.384 179.861 C 269.348 179.396,258.516 179.474,253.167 179.998 C 250.505 180.259,244.959 181.125,244.208 181.396 C 243.453 181.669,243.400 181.618,243.677 180.889 C 243.775 180.633,243.967 179.784,244.106 179.003 C 244.244 178.222,244.431 177.171,244.521 176.667 C 244.828 174.947,244.963 174.084,245.234 172.083 C 245.383 170.983,245.663 168.921,245.856 167.500 C 246.356 163.819,246.327 156.404,245.806 154.705 C 245.516 153.761,246.207 152.881,249.917 149.471 C 251.082 148.400,252.878 146.993,256.003 144.704 L 257.659 143.491 258.656 143.995 C 264.716 147.053,267.969 150.567,270.507 156.792 C 270.725 157.329,271.046 157.267,270.939 156.708 C 270.890 156.456,270.800 155.766,270.738 155.174 C 270.300 150.976,267.189 146.626,261.881 142.786 C 260.410 141.723,260.411 141.825,261.875 141.036 C 262.540 140.679,263.796 140.004,264.667 139.537 C 267.191 138.182,271.683 136.580,273.750 136.296 C 273.933 136.271,276.197 136.227,278.781 136.198 L 283.479 136.146 283.906 137.498 M252.935 140.979 C 255.500 142.049,255.532 141.755,252.630 143.764 C 249.680 145.805,248.810 146.504,246.897 148.372 C 245.406 149.827,244.694 150.425,244.595 150.309 C 244.568 150.276,244.112 148.900,243.582 147.250 C 243.051 145.600,242.483 143.935,242.318 143.551 L 242.020 142.851 242.885 142.600 C 243.361 142.462,244.741 142.085,245.951 141.763 C 247.162 141.440,248.587 141.030,249.118 140.850 C 250.527 140.374,251.569 140.409,252.935 140.979 M337.619 142.792 C 338.811 143.960,340.240 145.454,340.794 146.110 L 341.801 147.304 341.899 148.777 C 341.953 149.587,342.081 151.112,342.184 152.167 C 342.286 153.221,342.432 154.721,342.507 155.500 C 343.116 161.834,342.463 164.245,338.880 168.892 C 338.396 169.520,338.000 170.083,338.000 170.142 C 337.999 170.461,334.523 174.013,333.555 174.683 C 332.919 175.123,332.645 175.185,330.305 175.410 C 327.573 175.674,326.638 175.825,324.667 176.322 C 323.979 176.495,322.742 176.804,321.917 177.007 C 321.092 177.211,320.279 177.449,320.111 177.536 C 319.527 177.837,319.734 176.927,321.344 172.130 C 321.612 171.331,322.014 169.981,322.237 169.130 C 322.460 168.279,322.763 167.133,322.911 166.583 C 323.310 165.099,323.660 163.023,323.664 162.125 C 323.668 161.082,323.779 161.108,325.456 162.542 C 326.233 163.206,327.298 164.087,327.821 164.500 C 328.344 164.912,329.009 165.512,329.298 165.833 C 329.998 166.611,330.001 166.194,329.307 164.709 C 328.808 163.643,326.067 160.643,324.056 158.964 C 323.589 158.574,323.516 158.394,323.418 157.387 C 323.356 156.761,323.238 155.800,323.154 155.250 C 322.670 152.063,324.180 149.776,329.918 145.003 C 330.742 144.318,331.954 143.283,332.611 142.704 C 335.426 140.222,334.990 140.215,337.619 142.792 M119.952 143.333 C 120.758 143.516,121.979 143.785,122.667 143.932 C 126.082 144.660,128.476 145.241,130.167 145.754 C 130.946 145.990,132.258 146.328,133.083 146.505 C 138.372 147.642,140.280 148.264,140.410 148.893 C 140.451 149.089,140.563 150.412,140.660 151.833 C 140.757 153.254,140.906 154.829,140.992 155.333 C 141.078 155.837,141.267 156.957,141.413 157.822 C 141.793 160.075,142.599 163.025,143.187 164.310 C 143.638 165.298,143.723 165.315,140.827 163.841 C 139.410 163.120,137.425 162.215,136.417 161.830 C 134.816 161.218,133.971 160.950,131.167 160.167 C 130.290 159.922,126.901 159.501,125.757 159.495 C 124.752 159.489,122.116 159.155,120.632 158.844 C 119.229 158.550,115.813 156.616,114.210 155.208 C 112.380 153.602,111.569 152.211,109.811 147.667 L 109.327 146.417 109.398 148.583 C 109.559 153.468,112.393 158.206,116.066 159.731 C 116.510 159.916,115.028 160.464,110.583 161.758 C 109.117 162.185,107.354 162.720,106.667 162.946 C 104.963 163.507,99.400 165.919,98.606 166.440 C 97.718 167.024,97.543 166.624,96.740 162.167 C 96.600 161.387,96.331 159.925,96.143 158.917 C 95.955 157.908,95.761 156.176,95.712 155.068 L 95.624 153.053 97.270 152.174 C 100.300 150.558,102.724 148.762,105.677 145.945 C 108.596 143.160,108.139 143.444,110.049 143.231 C 113.081 142.894,118.254 142.947,119.952 143.333 M239.792 144.958 C 240.077 145.669,240.362 146.438,240.424 146.667 C 240.487 146.896,240.895 147.983,241.332 149.083 C 242.827 152.850,242.993 153.319,243.258 154.534 C 243.658 156.367,243.833 159.048,243.663 160.750 C 243.580 161.575,243.430 163.112,243.328 164.167 C 243.072 166.819,242.381 171.617,242.009 173.327 C 241.838 174.110,241.611 175.425,241.504 176.250 C 240.725 182.233,240.142 183.424,236.591 186.292 C 227.837 193.363,224.210 196.145,220.417 198.700 C 218.767 199.812,217.086 200.972,216.682 201.279 C 215.746 201.990,215.804 202.115,215.644 199.043 C 215.569 197.599,215.433 195.779,215.341 195.000 C 215.250 194.221,215.099 192.571,215.007 191.333 C 214.914 190.096,214.760 188.183,214.665 187.083 C 214.067 180.160,214.072 179.831,214.856 175.167 C 215.750 169.840,216.585 167.417,219.336 162.167 C 222.514 156.100,222.637 155.917,226.905 150.929 C 229.952 147.367,231.947 146.066,237.167 144.239 C 239.305 143.490,239.189 143.458,239.792 144.958 M316.123 148.289 C 316.651 149.090,317.664 150.362,318.374 151.117 C 319.085 151.871,319.667 152.536,319.667 152.593 C 319.667 152.756,320.336 156.047,320.439 156.388 C 320.512 156.631,320.285 156.558,319.307 156.024 C 317.701 155.148,315.004 154.089,313.750 153.841 C 312.024 153.500,312.121 153.611,312.605 152.532 C 312.840 152.010,313.370 150.721,313.785 149.667 C 315.104 146.312,314.900 146.432,316.123 148.289 M143.938 149.932 C 144.293 150.078,145.134 150.453,145.807 150.765 C 146.479 151.078,147.054 151.333,147.083 151.333 C 147.113 151.333,147.650 151.622,148.277 151.975 C 148.904 152.328,149.754 152.807,150.167 153.038 C 150.579 153.270,151.404 153.740,152.000 154.083 C 152.596 154.427,153.421 154.897,153.833 155.128 C 155.660 156.151,157.685 157.371,157.636 157.419 C 157.607 157.448,156.787 157.811,155.814 158.227 C 152.725 159.546,150.962 160.783,149.941 162.347 C 149.220 163.451,149.155 163.846,149.791 163.256 C 150.811 162.310,152.810 161.415,156.167 160.401 C 157.221 160.083,158.565 159.675,159.153 159.495 C 160.518 159.076,160.468 159.071,161.342 159.697 C 166.394 163.308,168.107 164.801,174.214 170.917 C 180.386 177.097,183.102 180.693,183.654 183.417 C 183.871 184.483,184.697 187.955,186.582 195.718 C 187.001 197.442,187.531 199.729,187.761 200.801 C 187.991 201.873,188.337 203.313,188.529 204.000 C 188.936 205.457,189.305 207.167,189.213 207.167 C 189.177 207.167,188.196 206.236,187.033 205.099 C 184.879 202.995,184.202 202.391,181.250 199.944 C 179.372 198.386,178.633 197.870,175.073 195.621 C 164.701 189.071,163.747 188.249,157.417 180.405 C 156.317 179.042,154.517 176.837,153.417 175.504 C 151.581 173.281,150.267 171.652,148.912 169.917 C 145.647 165.736,144.065 160.931,143.342 153.000 C 143.246 151.946,143.120 150.765,143.062 150.375 C 142.943 149.576,143.000 149.547,143.938 149.932 M195.090 156.689 C 195.210 157.067,195.187 157.068,194.156 156.731 C 193.202 156.419,193.236 156.532,193.680 155.157 C 194.415 152.883,194.368 152.903,194.697 154.737 C 194.859 155.640,195.036 156.518,195.090 156.689 M92.801 155.542 C 92.901 156.206,93.070 157.425,93.176 158.250 C 93.698 162.299,94.417 165.784,95.172 167.922 L 95.468 168.761 94.901 169.399 C 94.279 170.098,94.141 171.031,94.544 171.820 C 94.854 172.428,95.046 172.396,95.463 171.665 C 95.935 170.840,96.087 170.833,96.340 171.625 C 96.609 172.469,96.903 173.164,97.678 174.793 L 98.332 176.169 97.374 176.074 C 96.074 175.946,93.239 175.394,91.417 174.915 C 87.121 173.787,85.853 173.382,83.013 172.229 C 77.814 170.118,76.598 169.345,75.715 167.593 C 75.482 167.129,74.884 166.157,74.386 165.432 L 73.482 164.113 74.282 163.269 C 76.605 160.821,77.338 160.098,78.250 159.360 C 80.108 157.856,81.376 157.302,83.417 157.105 C 85.238 156.929,88.210 156.048,91.583 154.686 C 92.042 154.500,92.462 154.345,92.518 154.341 C 92.574 154.337,92.701 154.877,92.801 155.542 M176.167 156.077 C 178.106 156.154,180.742 156.519,183.917 157.151 C 185.555 157.477,188.365 158.142,188.446 158.224 C 188.531 158.309,188.259 159.376,186.953 164.083 C 186.546 165.550,186.124 167.125,186.015 167.583 C 185.906 168.042,185.665 168.827,185.480 169.329 C 185.170 170.170,184.853 171.505,183.977 175.664 C 183.611 177.402,183.548 177.544,183.321 177.139 C 181.683 174.213,169.363 161.779,164.644 158.290 C 164.381 158.096,164.167 157.888,164.167 157.828 C 164.167 157.736,167.257 156.815,168.917 156.412 C 169.873 156.180,172.588 155.881,173.250 155.935 C 173.617 155.965,174.929 156.029,176.167 156.077 M310.083 156.412 C 312.644 156.739,317.074 157.847,318.417 158.495 C 318.600 158.583,319.181 158.841,319.708 159.069 L 320.667 159.482 320.667 161.107 C 320.667 163.423,319.554 169.003,318.228 173.333 C 317.990 174.112,317.628 175.313,317.424 176.000 C 316.450 179.283,315.933 179.915,311.721 182.964 C 309.602 184.498,308.561 185.190,303.083 188.709 C 301.525 189.710,299.637 190.973,298.889 191.515 C 297.323 192.648,297.299 192.654,296.863 192.042 C 296.276 191.218,292.361 187.946,290.367 186.612 C 288.146 185.126,287.447 184.740,285.000 183.651 C 284.037 183.222,282.647 182.602,281.909 182.272 C 281.171 181.943,279.983 181.527,279.268 181.348 C 278.553 181.170,277.943 180.999,277.913 180.969 C 277.883 180.938,278.157 180.464,278.523 179.915 C 278.889 179.366,279.716 178.027,280.361 176.939 C 281.007 175.852,281.773 174.689,282.064 174.356 C 283.048 173.228,283.778 172.255,284.797 170.712 C 285.356 169.866,286.257 168.590,286.800 167.877 C 287.342 167.165,288.033 166.169,288.335 165.666 C 289.295 164.064,292.088 161.439,293.558 160.756 C 295.263 159.964,299.052 158.436,299.833 158.225 C 300.337 158.089,301.322 157.799,302.021 157.581 C 303.713 157.054,308.471 156.150,309.000 156.255 C 309.137 156.283,309.625 156.353,310.083 156.412 M195.629 160.697 C 196.597 161.327,199.713 164.404,201.403 166.399 C 201.800 166.867,203.127 168.806,204.354 170.708 C 210.091 179.608,210.432 180.410,211.251 186.917 C 211.389 188.017,211.586 189.442,211.687 190.083 C 211.789 190.725,211.932 192.075,212.006 193.083 C 212.079 194.092,212.257 196.117,212.400 197.583 C 212.793 201.619,212.768 202.060,212.011 204.394 C 211.197 206.907,210.705 208.275,210.417 208.833 C 210.294 209.070,209.990 209.898,209.740 210.673 C 209.337 211.922,208.827 213.195,207.840 215.417 C 207.677 215.783,207.446 216.346,207.326 216.667 C 207.206 216.987,206.942 217.625,206.740 218.083 C 206.538 218.542,206.097 219.629,205.761 220.500 C 205.424 221.371,205.069 222.271,204.972 222.500 C 204.874 222.729,204.323 224.304,203.748 226.000 C 202.277 230.332,201.899 231.481,201.679 232.292 C 201.361 233.464,201.555 233.810,199.219 227.917 C 197.555 223.718,196.833 221.777,196.833 221.499 C 196.833 221.256,194.708 214.912,194.479 214.469 C 194.161 213.856,192.605 208.286,192.160 206.167 C 191.202 201.609,190.853 200.072,190.667 199.583 C 190.562 199.308,190.329 198.371,190.150 197.500 C 189.971 196.629,189.605 195.054,189.337 194.000 C 186.673 183.531,186.582 178.959,188.889 171.333 C 189.208 170.279,189.771 168.254,190.141 166.833 C 190.510 165.412,191.117 163.277,191.489 162.088 C 191.862 160.899,192.167 159.805,192.167 159.657 C 192.167 159.510,192.213 159.343,192.269 159.286 C 192.447 159.109,194.539 159.987,195.629 160.697 M124.417 161.825 C 125.883 161.904,127.421 162.044,127.833 162.137 C 128.246 162.230,129.033 162.393,129.583 162.499 C 131.407 162.850,133.395 163.537,135.216 164.446 C 136.206 164.940,138.075 165.834,139.369 166.433 C 143.422 168.309,145.363 169.923,148.978 174.421 C 149.128 174.607,149.550 175.132,149.916 175.588 C 150.283 176.044,150.673 176.529,150.783 176.667 C 151.655 177.759,154.281 180.844,155.322 182.000 C 156.507 183.316,157.132 184.081,159.022 186.525 C 159.422 187.043,160.112 187.932,160.554 188.502 L 161.359 189.537 159.804 189.423 C 158.950 189.360,157.800 189.244,157.250 189.165 C 156.335 189.033,146.332 189.079,142.167 189.233 C 139.647 189.326,133.115 188.693,129.538 188.009 C 124.261 186.999,109.352 181.318,105.945 179.019 C 101.968 176.335,100.185 174.242,98.934 170.787 L 98.356 169.189 98.906 168.769 C 100.318 167.693,103.498 166.260,106.000 165.573 C 106.779 165.359,108.317 164.876,109.417 164.499 C 110.517 164.122,112.204 163.596,113.167 163.331 C 114.129 163.065,115.667 162.585,116.583 162.264 C 118.472 161.603,119.366 161.553,124.417 161.825 "
       stroke="none"
       fill="#0e2906"
       fill-rule="evenodd" />
  </g>
</svg>
